<svg width="32" height="32" viewBox="0 0 32 32" fill="none" xmlns="http://www.w3.org/2000/svg">
  <rect width="32" height="32" rx="8" fill="#2ABB63"/>
  <path d="M23 21C23 21.5304 22.7893 22.0391 22.4142 22.4142C22.0391 22.7893 21.5304 23 21 23H11C10.4696 23 9.96086 22.7893 9.58579 22.4142C9.21071 22.0391 9 21.5304 9 21V15H11V21H21V15H23V21ZM21 9C21.5304 9 22.0391 9.21071 22.4142 9.58579C22.7893 9.96086 23 10.4696 23 11V13H21V11H11V13H9V11C9 10.4696 9.21071 9.96086 9.58579 9.58579C9.96086 9.21071 10.4696 9 11 9H21ZM16 15C16.5304 15 17.0391 15.2107 17.4142 15.5858C17.7893 15.9609 18 16.4696 18 17C18 17.5304 17.7893 18.0391 17.4142 18.4142C17.0391 18.7893 16.5304 19 16 19C15.4696 19 14.9609 18.7893 14.5858 18.4142C14.2107 18.0391 14 17.5304 14 17C14 16.4696 14.2107 15.9609 14.5858 15.5858C14.9609 15.2107 15.4696 15 16 15Z" fill="white"/>
</svg>