<svg xmlns="http://www.w3.org/2000/svg" width="24" height="24" viewBox="0 0 24 24" fill="none" stroke="currentColor" stroke-width="2" stroke-linecap="round" stroke-linejoin="round" style="color: #2ABB63; background-color: white; padding: 2px; border-radius: 4px;">
  <path d="M12 3c.132 0 .263 0 .393 0a7.5 7.5 0 0 1 7.92 12.446a9 9 0 1 1 -16.626 0A7.5 7.5 0 0 1 12 3z"></path>
  <path d="M10 9a3 3 0 0 1 1 5.83"></path>
  <path d="M14 9a3 3 0 0 0 -1 5.83"></path>
  <path d="M12 13m-2 0a2 2 0 1 0 4 0a2 2 0 1 0 -4 0"></path>
  <path d="M12 18a3 3 0 0 0 3 -3"></path>
</svg>